<?xml version="1.0" encoding="iso-8859-1"?>
<!DOCTYPE svg PUBLIC "-//W3C//DTD SVG 1.1//EN" "http://www.w3.org/Graphics/SVG/1.1/DTD/svg11.dtd">
<svg xmlns="http://www.w3.org/2000/svg" xmlns:xlink="http://www.w3.org/1999/xlink" version="1.1" viewBox="0 0 477.292 477.292" enable-background="new 0 0 477.292 477.292" width="512px" height="512px">
  <g>
    <path d="m238.646,290.542c0.515,0 1.029-0.099 1.514-0.298l43.646-17.853c1.503-0.615 2.486-2.078 2.486-3.702v-21.253c0-1.333-0.664-2.578-1.771-3.321s-2.511-0.887-3.744-0.381l-42.132,17.233-42.132-17.233c-1.233-0.505-2.638-0.361-3.744,0.381-1.106,0.743-1.771,1.988-1.771,3.321v21.253c0,1.625 0.982,3.087 2.486,3.702l43.646,17.853c0.487,0.198 1.002,0.298 1.516,0.298zm-39.646-37.148l38.132,15.597c0.97,0.397 2.059,0.397 3.028,0l38.132-15.597v12.61l-39.646,16.216-39.646-16.216v-12.61z" fill="#91DC5A"/>
    <path d="m276.644,287.583c-1.106-0.743-2.511-0.887-3.744-0.381l-34.254,14.011-34.254-14.011c-1.235-0.505-2.638-0.361-3.744,0.381-1.106,0.743-1.771,1.988-1.771,3.321v21.253c0,1.625 0.982,3.087 2.486,3.702l35.768,14.63c0.485,0.199 1,0.298 1.514,0.298s1.029-0.099 1.514-0.298l35.768-14.63c1.503-0.615 2.486-2.078 2.486-3.702v-21.253c0.001-1.333-0.663-2.578-1.769-3.321zm-6.23,21.889l-31.768,12.994-31.768-12.994v-12.61l30.254,12.375c0.97,0.397 2.059,0.397 3.028,0l30.254-12.375v12.61z" fill="#91DC5A"/>
    <path d="m270.124,330.495c-1.106-0.743-2.51-0.887-3.744-0.381l-27.734,11.344-27.734-11.344c-1.235-0.505-2.638-0.361-3.744,0.381-1.106,0.743-1.771,1.988-1.771,3.321v21.253c0,1.625 0.982,3.087 2.486,3.702l29.249,11.963c0.485,0.199 1,0.298 1.514,0.298s1.029-0.099 1.514-0.298l29.249-11.963c1.503-0.615 2.486-2.078 2.486-3.702v-21.253c0-1.333-0.664-2.578-1.771-3.321zm-6.229,21.889l-25.249,10.327-25.249-10.327v-12.61l23.734,9.708c0.97,0.397 2.059,0.397 3.028,0l23.734-9.708v12.61z" fill="#91DC5A"/>
    <path d="m261.962,374.08c-1.106-0.743-2.511-0.887-3.744-0.381l-19.572,8.005-19.572-8.005c-1.234-0.505-2.638-0.361-3.744,0.381-1.106,0.743-1.771,1.988-1.771,3.321v21.253c0,1.132 0.479,2.21 1.319,2.969l21.086,19.037c0.762,0.687 1.721,1.031 2.681,1.031s1.919-0.344 2.681-1.031l21.086-19.037c0.84-0.759 1.319-1.837 1.319-2.969v-21.254c0.002-1.333-0.662-2.578-1.769-3.32zm-6.229,22.796l-17.086,15.425-17.086-15.425v-13.517l15.572,6.369c0.97,0.397 2.059,0.397 3.028,0l15.572-6.369v13.517z" fill="#91DC5A"/>
    <path d="m216.046,240.719l21.086,8.625c0.485,0.199 1,0.298 1.514,0.298s1.029-0.099 1.514-0.298l21.086-8.625c1.503-0.615 2.486-2.078 2.486-3.702v-21.253c0-1.333-0.664-2.578-1.771-3.321s-2.511-0.887-3.744-0.381l-19.572,8.005-19.572-8.005c-1.234-0.505-2.638-0.361-3.744,0.381-1.106,0.743-1.771,1.988-1.771,3.321v21.253c0.002,1.624 0.984,3.087 2.488,3.702zm5.514-18.998l15.572,6.369c0.97,0.397 2.059,0.397 3.028,0l15.572-6.369v12.61l-17.086,6.989-17.086-6.989v-12.61z" fill="#91DC5A"/>
    <path d="m350.086,387.81l-15.332-64.369c0.174-1.966 0.262-3.949 0.262-5.911 0-7.244-1.172-14.39-3.484-21.237-3.075-9.123-7.981-17.313-14.591-24.351-1.178-1.25-2.063-2.781-2.558-4.429-0.027-0.089-0.056-0.178-0.086-0.265-0.196-0.716-0.322-1.465-0.374-2.228l-1.42-20.821c-1.324-19.394 1.729-38.755 9.073-57.548 22.149-56.699 28.801-162.366 21.464-182.69-0.673-1.866-2.226-3.278-4.146-3.773-1.922-0.495-3.962-0.008-5.454,1.3-48.938,42.925-73.713,90.129-85.88,122.171-3.894,10.256-6.776,19.606-8.913,27.737-2.137-8.131-5.019-17.482-8.914-27.738-12.167-32.04-36.944-79.245-85.884-122.168-1.491-1.308-3.533-1.795-5.455-1.299-1.921,0.495-3.473,1.908-4.146,3.775-7.331,20.334-0.672,126.006 21.473,182.69 7.34,18.79 10.392,38.153 9.069,57.55l-1.419,20.817c-0.176,2.581-1.249,5.04-3.022,6.923-13.043,13.858-19.502,32.573-17.811,51.494l-15.334,64.403c-4.278,17.968 3.978,36.842 20.076,45.897l23.55,13.189c0.348,0.591 0.702,1.179 1.073,1.76 7.42,11.617 20.079,18.552 33.861,18.552 1.956,0 3.918-0.152 5.855-0.437 7.356,6.695 17.023,10.487 27.026,10.487 10.004,0 19.67-3.793 27.026-10.488 1.935,0.285 3.898,0.437 5.855,0.437 13.783,0 26.441-6.936 33.86-18.551 0.386-0.604 0.755-1.214 1.116-1.828l23.517-13.123c16.097-9.052 24.352-27.927 20.067-45.928zm-50.121-8.677c-0.338-0.382-0.639-0.786-0.938-1.191 0.504,0.011 1.009,0.029 1.513,0.029 11.649,0 22.849-2.928 32.835-8.518l4.297,18.044c-8.693,4.219-17.932,6.879-27.577,7.934-2.4-5.86-5.78-11.384-10.13-16.298zm7.057-73.212c0.145-0.776 0.4-1.504 0.74-2.179l1.577,2.72c3.478,5.996 1.471,13.776-4.472,17.343l-1.351,.811 3.506-18.695zm-5.476,29.207l7.438-4.464c9.67-5.803 12.934-18.461 7.277-28.216l-1.773-3.058c1.753-0.108 3.683,0.341 5.46,1.779l.727,.586c1.55,5.112 2.342,10.41 2.342,15.775 0,1.895-0.1,3.814-0.298,5.707-0.07,0.673-0.026,1.354 0.131,2.012l3.229,13.562c-6.964,6.289-16.032,9.829-25.539,9.829-0.506,0-1.014-0.015-1.521-0.035l2.527-13.477zm29.892,26.189c-9.281,5.672-19.86,8.653-30.898,8.653-1.576,0-3.15-0.064-4.713-0.187-0.185-1.658-0.15-3.353 0.167-5.045l1.539-8.209c1.003,0.066 2.006,0.111 3.007,0.111 10.052,0 19.703-3.266 27.601-9.168l3.297,13.845zm-28.085-155.63c-2.961-18.48-4.649-38.778-3.588-59.433l14.974,23.629c-1.368,4.343-2.813,8.496-4.34,12.404-3.017,7.717-5.366,15.528-7.046,23.4zm26.132-108.688l-12.693-15.994 15.16-7.503c-0.651,7.593-1.472,15.489-2.467,23.497zm-11.758,62.652l-15.501-24.461 24.071-16.003c-2.299,14.005-5.144,27.824-8.57,40.464zm14.947-95.433l-13.606,6.734c5.056-9.56 10.255-16.759 14.452-21.787-0.198,4.776-0.479,9.816-0.846,15.053zm-21.051,23.219l16.312,20.855-26.183,17.564c1.895-12.981 5.072-25.905 9.871-38.419zm-160.636,31.673l24.187,16.08-15.574,24.577c-3.447-12.695-6.306-26.583-8.613-40.657zm-5.649-45.663l15.269,7.557-12.783,16.107c-1.004-8.065-1.831-16.018-2.486-23.664zm4.126,34.846l16.241-20.764c4.769,12.46 7.934,25.325 9.826,38.249l-26.067-17.485zm-4.848-44.129c-0.365-5.217-0.646-10.239-0.843-14.998 4.187,5.016 9.37,12.191 14.413,21.714l-13.57-6.716zm17.976,105.828l14.944-23.582c1.044,20.602-0.642,40.844-3.595,59.278-1.68-7.872-4.027-15.682-7.042-23.399-1.515-3.875-2.949-7.992-4.307-12.297zm-5.244,131.173c1.774-1.434 3.704-1.881 5.457-1.772l-1.772,3.056c-5.657,9.755-2.393,22.413 7.277,28.216l7.434,4.462 2.527,13.479c-0.506,0.02-1.013,0.035-1.518,0.035-9.508,0-18.576-3.541-25.54-9.83l3.23-13.564c0.157-0.66 0.201-1.343 0.13-2.018-0.77-7.315-0.031-14.603 2.046-21.474l.729-.59zm9.853,94.266c-9.646-1.055-18.886-3.715-27.579-7.934l4.296-18.045c9.986,5.59 21.187,8.518 32.836,8.518 0.503,0 1.006-0.018 1.509-0.029-0.299,0.404-0.6,0.808-0.937,1.189-4.349,4.916-7.727,10.441-10.125,16.301zm14.095-30.692c0.317,1.693 0.352,3.387 0.167,5.045-1.562,0.122-3.135,0.186-4.71,0.186-11.039,0-21.618-2.982-30.899-8.654l3.297-13.845c7.898,5.902 17.55,9.168 27.602,9.168 1,0 2.002-0.045 3.004-0.111l1.539,8.211zm-13.343-58.277l1.576-2.717c0.339,0.674 0.594,1.402 0.739,2.177l3.505,18.692-1.347-.808c-5.944-3.568-7.951-11.348-4.473-17.344zm-14.791,116.82c-9.96-5.602-15.693-16.486-15.021-27.636 8.42,3.841 17.293,6.359 26.51,7.535-2.168,8.56-2.384,17.552-0.581,26.238l-10.908-6.137zm72.363,38.742c1.833-1.033 3.596-2.194 5.247-3.505 3.02-2.404 5.665-5.248 7.873-8.393 2.21,3.148 4.857,5.993 7.884,8.402 1.649,1.306 3.409,2.463 5.238,3.494-4.013,2.116-8.516,3.269-13.122,3.269-4.606,0.001-9.108-1.151-13.12-3.267zm69.749-19.794c-5.204,8.148-14.082,13.012-23.748,13.012-1.66,0-3.328-0.147-4.953-0.438-4.585-0.823-8.94-2.788-12.583-5.672-3.651-2.906-6.548-6.703-8.381-10.989l-.499-1.16 17.511-14.464c1.703-1.407 1.943-3.928 0.537-5.631-1.407-1.703-3.928-1.943-5.631-0.537l-18.88,15.595-18.88-15.595c-1.703-1.406-4.224-1.166-5.631,0.537-1.407,1.703-1.167,4.225 0.537,5.631l17.508,14.462-.504,1.173c-1.829,4.276-4.726,8.073-8.371,10.974-3.64,2.889-7.993,4.853-12.585,5.677-1.629,0.292-3.296,0.439-4.957,0.439-9.666,0-18.544-4.864-23.748-13.012-10.983-17.193-9.215-39.872 4.3-55.15 5.966-6.75 8.436-15.698 6.775-24.552l-11.028-58.818c-1.063-5.668-4.341-10.425-9.227-13.393-2.964-1.804-6.208-2.766-9.461-2.935 1.687-2.539 3.59-4.955 5.712-7.21 3.67-3.9 5.893-8.99 6.256-14.332l1.419-20.817c0.306-4.495 0.385-8.987 0.263-13.47 9.659-41.81 15.555-99.27-5.078-150.06-9.959-24.514-22.504-38.703-28.51-44.546-0.091-7.569 0.075-14.101 0.486-19.187 41.66,39.119 63.395,80.837 74.41,109.684 11.329,29.669 13.83,51.832 14.25,56.457-10.922,1.328-21.033,6.219-28.943,14.13-1.562,1.563-1.562,4.095 0,5.657 0.781,0.781 1.805,1.171 2.829,1.171 1.024,0 2.047-0.391 2.829-1.171 7.846-7.847 18.27-12.168 29.349-12.168 11.08,0 21.503,4.321 29.35,12.168 1.563,1.562 4.095,1.562 5.657,0 1.562-1.563 1.562-4.095 0-5.657-7.911-7.91-18.022-12.802-28.943-14.13 0.419-4.621 2.919-26.783 14.25-56.456 11.015-28.847 32.75-70.567 74.409-109.687 0.412,5.085 0.578,11.618 0.488,19.189-6.006,5.843-18.551,20.032-28.51,44.546-20.633,50.788-14.738,108.245-5.08,150.054-0.122,4.484-0.043,8.976 0.264,13.471l1.42,20.826c0.121,1.752 0.434,3.477 0.93,5.125 0.039,0.127 0.081,0.252 0.127,0.375 1.048,3.282 2.842,6.329 5.195,8.823 2.122,2.259 4.023,4.67 5.711,7.211-3.25,0.169-6.493,1.132-9.456,2.935-4.89,2.97-8.168,7.727-9.231,13.396l-11.028,58.815c-1.661,8.854 0.809,17.803 6.778,24.556 13.52,15.277 15.288,37.953 4.296,55.148zm28.862-18.949l-10.911,6.136c1.805-8.686 1.589-17.678-0.58-26.237 9.218-1.176 18.09-3.694 26.51-7.536 0.671,11.151-5.061,22.035-15.019,27.637z" fill="#91DC5A"/>
  </g>
</svg>
