<?xml version="1.0" encoding="UTF-8"?>
<!-- Created with EazyDraw for Mac ( http://www.eazydraw.com/ ) -->

<svg
    version="1.1"
    xmlns:dc="http://purl.org/dc/elements/1.1/"
    xmlns:cc="http://creativecommons.org/ns#"
    xmlns:rdf="http://www.w3.org/1999/02/22-rdf-syntax-ns#"
    xmlns:svg="http://www.w3.org/2000/svg"
    xmlns:xlink="http://www.w3.org/1999/xlink"
    xmlns="http://www.w3.org/2000/svg"
    width="480.073188677"
    height="286.506"
    viewBox="0, 0, 480.073188677, 286.506"
    preserveAspectRatio="none"
    id="svg2">
   <defs
       id="defs_4D0653C5"/>
   <metadata
       id="metadata7">
      <rdf:RDF>
         <cc:Work
             rdf:about="">
            <dc:format>image/svg+xml</dc:format>
            <dc:type rdf:resource="http://purl.org/dc/dcmitype/StillImage"/>
            <dc:title></dc:title>
         </cc:Work>
      </rdf:RDF>
   </metadata>
   <g
       id="layer_Paper"
       style="fill:#000000;fill-opacity:1;stroke:#000000;stroke-opacity:1;fill-rule:nonzero;stroke-linecap:square;stroke-linejoin:miter;stroke-width:1;stroke-miterlimit:10">
      <path
          style="stroke:none"
          id="9E089AA5"
          d="M461.457971752,93.675 C442.673971752,63.065 410.176971752,37.972 369.952971752,23.02 C369.837971752,22.977 369.721971752,22.936 369.604971752,22.897 C323.610971752,7.704 277.182971752,0 231.613971752,0
C191.463971752,0 150.496971752,5.971 109.770971752,17.77 C67.2749717524,30.458 33.8219717524,56.421 15.5749717524,90.878 C-1.960028247637,123.989 -4.791028247637,163.782 7.600971752363,202.926 C7.673971752363,203.157 7.754971752363,203.385 7.844971752363,203.61
C27.0479717524,251.803 64.3959717524,282.674 107.749971752,286.189 C110.347971752,286.399 112.989971752,286.506 115.603971752,286.506 C134.139971752,286.506 152.530971752,281.259 168.790971752,271.334 C197.900971752,253.564 220.600971752,245.64 242.392971752,245.64
C262.828971752,245.64 283.615971752,252.555 309.794971752,268.059 C325.809971752,277.544 343.629971752,282.584 361.329971752,282.632 L361.647971752,282.632 C411.262971752,282.632 455.350971752,251.597 471.383971752,205.393
C485.705971752,166.223 482.272971752,127.594 461.457971752,93.675 z M452.574971752,198.597 C452.554971752,198.653 452.534971752,198.708 452.514971752,198.764 C439.291971752,236.965 402.775971752,262.632 361.648971752,262.632
L361.384971752,262.632 C347.248971752,262.593 332.934971752,258.52 319.986971752,250.851 C290.548971752,233.415 266.617971752,225.64 242.392971752,225.64 C216.712971752,225.64 190.799971752,234.468 158.370971752,254.263
C145.250971752,262.272 130.461971752,266.506 115.603971752,266.506 C113.526971752,266.506 111.428971752,266.421 109.366971752,266.254 C73.8559717524,263.375 42.9219717524,237.324 26.5589717524,196.543 C15.7669717524,162.181 18.0779717524,128.887 33.2489717524,100.237
C48.9669717524,70.556 78.1749717524,48.075 115.413971752,36.956 C154.251971752,25.705 193.347971752,19.999 231.613971752,19.999 C274.988971752,19.999 319.247971752,27.344 363.155971752,41.83 C427.489971752,65.815 480.053971752,123.558 452.574971752,198.597
z M422.077971752,95.171 C441.732971752,117.837 452.694971752,143.879 450.006971752,161.519 C448.721971752,169.947 444.507971752,176.587 437.819971752,180.723 C432.252971752,184.166 427.052971752,185.87 422.068971752,185.871
C420.298971752,185.871 418.557971752,185.657 416.835971752,185.229 C405.721971752,182.47 399.526971752,171.906 392.355971752,159.674 C385.949971752,148.75 378.688971752,136.367 366.572971752,125.694 C354.551971752,115.105 340.834971752,109.687 328.730971752,104.908
C315.249971752,99.584 303.605971752,94.986 299.843971752,84.047 C297.534971752,77.335 298.857971752,69.922 303.886971752,61.384 C308.131971752,54.174 315.204971752,49.379 324.338971752,47.518 C343.524971752,43.607 371.124971752,52.773 396.372971752,71.435
C400.813971752,74.718 401.752971752,80.979 398.470971752,85.42 C395.188971752,89.862 388.925971752,90.8 384.484971752,87.518 C364.600971752,72.82 341.505971752,64.43 328.333971752,67.115 C323.093971752,68.183 321.607971752,70.704 321.120971752,71.533
C318.533971752,75.926 318.760971752,77.548 318.763971752,77.563 C319.797971752,79.876 329.594971752,83.745 336.077971752,86.305 C349.029971752,91.42 365.148971752,97.785 379.793971752,110.685 C394.317971752,123.48 402.796971752,137.938 409.607971752,149.556
C413.665971752,156.475 418.714971752,165.087 421.654971752,165.817 C422.436971752,166.01 424.320971752,165.555 427.300971752,163.712 C428.401971752,163.032 429.728971752,161.825 430.235971752,158.504 C431.743971752,148.614 424.235971752,128.185 406.968971752,108.273
C403.350971752,104.101 403.799971752,97.785 407.971971752,94.167 C412.144971752,90.549 418.458971752,90.998 422.077971752,95.171 z"/>
      <polygon
          id="60BF8EA5"
          points="46.8078706212,74.4881374268 105.789495629,34.1812270996 231.394532657,16.5535466309 347.451242765,28.1881282878 427.564987377,75.1952762044 403.049540803,96.5149243245 323.092069954,51.7815596598 316.020682177,59.6851052246 316.270720198,96.5578996094 332.257526155,102.254078271 355.542316845,113.552671338 376.182174096,132.188317578 385.476556152,147.264828866 394.856888777,157.254629167 402.150966666,169.545560628 409.198913378,179.269695532 449.068257169,161.286492253 401.736841194,94.4091353678 428.498723111,74.398280013 458.800205761,122.647804346 465.75829506,185.36437229 444.856679256,226.835522152 434.558238273,239.567926994 428.86205961,246.299419336 415.313124357,253.261415479 402.631508487,260.555493368 387.812848909,264.212299422 375.432060034,265.853173934 357.02301075,267.853478101 336.03935122,265.071805119 321.095672631,257.336253849 304.374379988,249.389733 293.255501749,242.427736857 281.699056974,236.704210286 266.282650252,231.144771167 251.471804361,229.445293994 233.754266479,231.101795882 218.244095499,232.703601953 203.304323754,237.481672257 190.185141349,241.087689339 176.67918138,248.346605632 164.728145353,253.515360343 154.605512353,260.035883105 143.701510538,264.28652946 132.32478059,269.330265161 119.205598185,269.412308887 113.255474658,274.803753711 102.347565999,271.592327881 94.135379752,270.803145378 85.5793912266,265.759409676 75.5856840815,263.852869767 68.7213590408,257.683962972 58.1181842198,251.378316634 50.5584409337,245.475075236 41.0843440505,235.004733114 34.0910931554,222.19419139 26.882965836,214.149999438 23.1011407709,200.421349357 19.0614639968,184.442357088 17.932386059,171.014534001 17.3229183832,157.110075936 17.0181845453,144.420646379 18.448089477,131.77809895 20.7570343256,118.479201717"/>
   </g>
</svg>
