<?xml version="1.0" encoding="iso-8859-1"?>
<!-- Generator: Adobe Illustrator 19.0.0, SVG Export Plug-In . SVG Version: 6.00 Build 0)  -->
<svg xmlns="http://www.w3.org/2000/svg" xmlns:xlink="http://www.w3.org/1999/xlink" version="1.1" id="Capa_1" x="0px" y="0px" viewBox="0 0 296.477 296.477" style="enable-background:new 0 0 296.477 296.477;" xml:space="preserve" width="512px" height="512px">
<g>
	<path d="M244.63,35.621c-21.771-18.635-47.382-29.854-73.767-33.902C121.871-5.797,70.223,11.421,35.622,51.847   c-53.236,62.198-45.972,155.773,16.226,209.01c21.771,18.634,47.381,29.853,73.766,33.901   c48.991,7.517,100.641-9.703,135.241-50.13C314.091,182.431,306.826,88.856,244.63,35.621z M78.067,101.066l12.702,8.594   c-5.068,7.558-8.673,16.173-10.439,25.44l-15.035-3.016C67.466,120.784,71.875,110.28,78.067,101.066z M65.352,164.484   l15.056-2.904c1.824,9.241,5.482,17.822,10.589,25.343l-12.767,8.501C72.012,186.239,67.567,175.762,65.352,164.484z    M109.464,90.86l-8.501-12.767c9.203-6.226,19.703-10.67,31.004-12.875l2.904,15.056C125.607,82.088,117.002,85.745,109.464,90.86z    M161.563,215.975c9.236-1.803,17.819-5.434,25.344-10.518l8.499,12.764c-9.189,6.194-19.665,10.616-30.939,12.81L161.563,215.975z    M218.305,195.34l-12.702-8.594c5.083-7.534,8.709-16.128,10.504-25.376l15.036,3.015   C228.942,175.667,224.511,186.149,218.305,195.34z M216.111,134.89c-1.796-9.261-5.425-17.866-10.517-25.409l12.763-8.5   c6.202,9.208,10.623,19.707,12.809,31.005L216.111,134.89z M242.476,54.021l-2.881,21.292l-21.292,2.885l2.884-21.293   L242.476,54.021z M195.432,78.038l-8.594,12.701c-7.553-5.09-16.17-8.716-25.441-10.503l3.016-15.035   C175.717,67.393,186.222,71.824,195.432,78.038z M140.21,28.885c-0.13-0.58-0.204-1.182-0.204-1.802c0-4.54,3.681-8.22,8.221-8.22   c4.539,0,8.22,3.68,8.22,8.22c0,0.619-0.074,1.221-0.204,1.801c4.176,0.391,7.446,3.901,7.446,8.181c0,4.54-3.681,8.22-8.22,8.22   c-3.124,0-5.84-1.741-7.231-4.307c-1.391,2.565-4.106,4.307-7.23,4.307c-4.54,0-8.22-3.68-8.22-8.22   C132.787,32.794,136.044,29.287,140.21,28.885z M55.341,55.628c24.019-5.307,28.287,7.096,25.646,12.219   c-2.226,4.318-6.194,4.985-9.805,3.622c0.876,3.579,0.696,7.579-3.623,9.806C62.435,83.917,50.033,79.647,55.341,55.628z    M17.846,157.733c-1.479-4.628,0.855-7.905,4.372-9.494c-3.149-1.911-5.852-4.867-4.372-9.495   c1.755-5.491,13.543-11.242,26.774,9.495C31.389,168.975,19.601,163.224,17.846,157.733z M54.003,242.453l2.881-21.292   l21.294-2.887l-2.886,21.295L54.003,242.453z M101.156,218.275l8.594-12.702c7.539,5.061,16.132,8.665,25.376,10.44l-3.015,15.036   C120.834,228.869,110.353,224.458,101.156,218.275z M156.269,267.59c0.13,0.58,0.204,1.181,0.204,1.8   c0,4.54-3.681,8.221-8.221,8.221c-4.538-0.001-8.218-3.681-8.219-8.22c0-0.62,0.074-1.222,0.204-1.802   c-4.176-0.391-7.446-3.903-7.446-8.18c0-4.54,3.681-8.221,8.221-8.221c3.122,0,5.837,1.741,7.229,4.306   c1.391-2.564,4.107-4.306,7.23-4.306c4.54,0,8.221,3.681,8.221,8.221C163.693,263.678,160.436,267.188,156.269,267.59z    M240.382,240.669c-24.02,5.308-28.289-7.095-25.646-12.218c2.227-4.318,6.229-4.498,9.807-3.623   c-1.363-3.61-0.697-7.578,3.621-9.805C233.286,212.381,245.689,216.651,240.382,240.669z M251.857,148.239   c13.231-20.737,25.02-14.986,26.774-9.495c1.479,4.628-1.223,7.584-4.372,9.495c3.517,1.589,5.852,4.866,4.372,9.494   C276.876,163.224,265.088,168.975,251.857,148.239z" fill="#D80027"/>
</g>
<g>
</g>
<g>
</g>
<g>
</g>
<g>
</g>
<g>
</g>
<g>
</g>
<g>
</g>
<g>
</g>
<g>
</g>
<g>
</g>
<g>
</g>
<g>
</g>
<g>
</g>
<g>
</g>
<g>
</g>
</svg>
