<?xml version="1.0" encoding="iso-8859-1"?>
<!-- Generator: Adobe Illustrator 17.1.0, SVG Export Plug-In . SVG Version: 6.00 Build 0)  -->
<!DOCTYPE svg PUBLIC "-//W3C//DTD SVG 1.1//EN" "http://www.w3.org/Graphics/SVG/1.1/DTD/svg11.dtd">
<svg version="1.1" id="Capa_1" xmlns="http://www.w3.org/2000/svg" xmlns:xlink="http://www.w3.org/1999/xlink" x="0px" y="0px"
	 viewBox="0 0 480.073 480.073" style="enable-background:new 0 0 480.073 480.073;" xml:space="preserve">
<path d="M461.458,190.459c-18.784-30.61-51.281-55.703-91.505-70.655c-0.115-0.043-0.231-0.084-0.348-0.123
	c-45.994-15.193-92.422-22.897-137.991-22.897c-40.15,0-81.117,5.971-121.843,17.77c-42.496,12.688-75.949,38.651-94.196,73.108
	C-1.96,220.773-4.791,260.566,7.601,299.71c0.073,0.231,0.154,0.459,0.244,0.684c19.203,48.193,56.551,79.064,99.905,82.579
	c2.598,0.21,5.24,0.317,7.854,0.317c18.536,0,36.927-5.247,53.187-15.172c29.11-17.77,51.81-25.694,73.602-25.694
	c20.436,0,41.223,6.915,67.402,22.419c16.015,9.485,33.835,14.525,51.535,14.573l0.318,0c49.615,0,93.703-31.035,109.736-77.239
	C485.706,263.007,482.273,224.378,461.458,190.459z M452.575,295.381c-0.02,0.056-0.04,0.111-0.06,0.167
	c-13.223,38.201-49.739,63.868-90.866,63.868l-0.264,0c-14.136-0.039-28.45-4.112-41.398-11.781
	c-29.438-17.436-53.369-25.211-77.594-25.211c-25.68,0-51.593,8.828-84.022,28.623c-13.12,8.009-27.909,12.243-42.767,12.243
	c-2.077,0-4.175-0.085-6.237-0.252c-35.511-2.879-66.445-28.93-82.808-69.711c-10.792-34.362-8.481-67.656,6.69-96.306
	c15.718-29.681,44.926-52.162,82.165-63.281c38.838-11.251,77.934-16.957,116.2-16.957c43.375,0,87.634,7.345,131.542,21.831
	C427.49,162.599,480.054,220.342,452.575,295.381z M422.078,191.955c19.655,22.666,30.617,48.708,27.929,66.348
	c-1.285,8.428-5.499,15.068-12.187,19.204c-5.567,3.443-10.767,5.147-15.751,5.148c-1.77,0-3.511-0.214-5.233-0.642
	c-11.114-2.759-17.309-13.323-24.48-25.555c-6.406-10.924-13.667-23.307-25.783-33.98c-12.021-10.589-25.738-16.007-37.842-20.786
	c-13.481-5.324-25.125-9.922-28.887-20.861c-2.309-6.712-0.986-14.125,4.043-22.663c4.245-7.21,11.318-12.005,20.452-13.866
	c19.186-3.911,46.786,5.255,72.034,23.917c4.441,3.283,5.38,9.544,2.098,13.985c-3.282,4.442-9.545,5.38-13.986,2.098
	c-19.884-14.698-42.979-23.088-56.151-20.403c-5.24,1.068-6.726,3.589-7.213,4.418c-2.587,4.393-2.36,6.015-2.357,6.03
	c1.034,2.313,10.831,6.182,17.314,8.742c12.952,5.115,29.071,11.48,43.716,24.38c14.524,12.795,23.003,27.253,29.814,38.871
	c4.058,6.919,9.107,15.531,12.047,16.261c0.782,0.193,2.666-0.262,5.646-2.105c1.101-0.68,2.428-1.887,2.935-5.208
	c1.508-9.89-6-30.319-23.267-50.231c-3.618-4.172-3.169-10.488,1.003-14.106C412.145,187.333,418.459,187.782,422.078,191.955z"/>
<g>
</g>
<g>
</g>
<g>
</g>
<g>
</g>
<g>
</g>
<g>
</g>
<g>
</g>
<g>
</g>
<g>
</g>
<g>
</g>
<g>
</g>
<g>
</g>
<g>
</g>
<g>
</g>
<g>
</g>
</svg>
